Coordinates
version=1
nRows=24
nColumns=24
inDegrees=yes

Units are S.I. units (second, meters, Newtons, ...)
Angles are in degrees.

endheader
time	pelvis_tilt	pelvis_list	pelvis_rotation	pelvis_tx	pelvis_ty	pelvis_tz	hip_flexion_r	hip_adduction_r	hip_rotation_r	knee_angle_r	ankle_angle_r	subtalar_angle_r	mtp_angle_r	hip_flexion_l	hip_adduction_l	hip_rotation_l	knee_angle_l	ankle_angle_l	subtalar_angle_l	mtp_angle_l	lumbar_extension	lumbar_bending	lumbar_rotation
      4.61500000	    -12.56655425	     -0.18255796	     -4.71615439	      0.13716421	     -0.00693816	      0.02870973	      4.66129759	      4.62284957	      7.42572127	     -4.43370233	      1.31600694	     -0.78713568	      7.61152828	     35.28801909	     -9.00920673	    -15.99639980	    -46.11690043	     -8.53011255	      7.89813592	     18.90090503	     11.18826185	      1.85594972	      5.96381218
      4.62000000	    -12.58795357	     -0.07988230	     -4.75771286	      0.14230421	     -0.00750166	      0.02849330	      4.37993482	      4.48124824	      7.49651588	     -4.45376876	      1.56516471	     -0.80085958	      7.71891839	     35.53352434	     -8.82117398	    -16.11466562	    -45.02136910	     -8.28521474	      7.66443419	     18.54041452	     11.21242906	      1.73643050	      6.08652715
      4.62500000	    -12.53030796	      0.00440549	     -4.83966785	      0.14740856	     -0.00795632	      0.02819866	      4.00790006	      4.33887892	      7.58814798	     -4.45270410	      1.76939602	     -0.71073953	      7.87094714	     35.66784940	     -8.65123496	    -16.26689133	    -43.90581155	     -8.02094810	      7.45104148	     18.05265652	     11.13563570	      1.66051891	      6.25936465
      4.63000000	    -12.57839814	      0.07519789	     -4.86480495	      0.15253680	     -0.00857900	      0.02791402	      3.75673284	      4.22590098	      7.64867452	     -4.47714098	      1.98935871	     -0.71255432	      7.95607678	     35.92298026	     -8.46937680	    -16.31669154	    -42.76265452	     -7.82269700	      7.38274404	     17.82241660	     11.18072074	      1.57546274	      6.36169998
      4.63500000	    -12.51668378	      0.16104925	     -4.94911526	      0.15767110	     -0.00908306	      0.02759038	      3.38416057	      4.07652540	      7.72171003	     -4.48627346	      2.21541184	     -0.59164037	      8.12211522	     36.02104017	     -8.29065143	    -16.49769325	    -41.59984177	     -7.59397809	      7.24825512	     17.39220582	     11.10343869	      1.49501271	      6.52533911
      4.64000000	    -12.57221494	      0.21198359	     -4.95970538	      0.16280346	     -0.00975885	      0.02723279	      3.14250267	      3.97891754	      7.76017731	     -4.51762881	      2.42706992	     -0.58621804	      8.21275662	     36.26226003	     -8.10830393	    -16.52860660	    -40.41964643	     -7.42968621	      7.31555291	     17.21558914	     11.14921793	      1.43342413	      6.60329696
      4.64500000	    -12.54503723	      0.29689995	     -5.02350982	      0.16800834	     -0.01034326	      0.02688766	      2.80315612	      3.82878025	      7.81240250	     -4.52816975	      2.65085910	     -0.46510014	      8.38215590	     36.36669968	     -7.91143018	    -16.68220134	    -39.20295895	     -7.25146187	      7.34703559	     16.90967353	     11.12009825	      1.34481903	      6.73860125
      4.65000000	    -12.60851674	      0.32461587	     -5.02628599	      0.17313503	     -0.01104832	      0.02648595	      2.57124132	      3.75188171	      7.84198670	     -4.56510267	      2.83699311	     -0.44770514	      8.47414818	     36.59201985	     -7.73209028	    -16.67313533	    -37.98145003	     -7.15976442	      7.54096752	     16.77608578	     11.16815794	      1.30257924	      6.80722642
      4.65500000	    -12.65901908	      0.38041259	     -5.04420018	      0.17832524	     -0.01174467	      0.02607008	      2.32264327	      3.63826720	      7.87600281	     -4.59764791	      3.03230689	     -0.39215832	      8.58589870	     36.77069956	     -7.53065756	    -16.73215632	    -36.72390242	     -7.09174134	      7.76905889	     16.63307431	     11.21117022	      1.23935481	      6.88583548
      4.66000000	    -12.61657569	      0.46286997	     -5.10531636	      0.18355906	     -0.01230756	      0.02566081	      1.96635440	      3.47632210	      7.89094409	     -4.60357472	      3.21079098	     -0.19112612	      8.81032311	     36.80306895	     -7.31536452	    -16.87111227	    -35.41911347	     -7.04629843	      8.05767364	     16.44936082	     11.15805070	      1.15666665	      7.01611186
      4.66500000	    -12.71313243	      0.48931140	     -5.08080785	      0.18874607	     -0.01308541	      0.02516724	      1.76940223	      3.39576855	      7.89080277	     -4.64770114	      3.38312320	     -0.17883827	      8.90614641	     37.01869070	     -7.10637949	    -16.85148766	    -34.12762742	     -7.08554789	      8.41718752	     16.37570747	     11.24104617	      1.11793537	      7.04607849
      4.67000000	    -12.71331117	      0.56973994	     -5.12885927	      0.19398060	     -0.01370096	      0.02474914	      1.47249953	      3.23948498	      7.87527460	     -4.67992623	      3.55638721	      0.03663107	      9.13493275	     37.06829631	     -6.88287629	    -16.96656541	    -32.76524170	     -7.20134313	      8.84352012	     16.35409565	     11.22821865	      1.03293084	      7.16906136
      4.67500000	    -12.82631274	      0.60936065	     -5.09982648	      0.19919952	     -0.01447334	      0.02423375	      1.29433775	      3.14062055	      7.86262051	     -4.72304914	      3.70701956	      0.08587521	      9.23484344	     37.26414057	     -6.65485537	    -16.97515897	    -31.41886399	     -7.40465154	      9.30614365	     16.31720951	     11.32880957	      0.97798060	      7.16867657
      4.68000000	    -12.85428041	      0.69126917	     -5.14734015	      0.20445758	     -0.01511750	      0.02383475	      1.04076858	      2.98668728	      7.80655047	     -4.78214219	      3.89065750	      0.34957028	      9.44552273	     37.30481468	     -6.42497337	    -17.08143265	    -29.99093943	     -7.70093935	      9.80675215	     16.46219493	     11.34451887	      0.88627638	      7.29352280
      4.68500000	    -12.98516202	      0.74092430	     -5.11080347	      0.20972107	     -0.01589191	      0.02332349	      0.88626449	      2.87660540	      7.77459738	     -4.83500958	      4.03238158	      0.43438198	      9.53941130	     37.48106707	     -6.17803270	    -17.09681033	    -28.59213795	     -8.07334454	     10.33591115	     16.47210722	     11.46663682	      0.81299801	      7.27462323
      4.69000000	    -13.09371544	      0.81760548	     -5.11078713	      0.21501104	     -0.01661625	      0.02285572	      0.72212917	      2.73362902	      7.71822173	     -4.90748660	      4.19524631	      0.63072559	      9.65854479	     37.59282097	     -5.92466725	    -17.17199219	    -27.14268960	     -8.53030549	     10.90379692	     16.58952357	     11.56834815	      0.72044640	      7.31163287
      4.69500000	    -13.12802236	      0.90954813	     -5.16121997	      0.22028262	     -0.01723254	      0.02242987	      0.50942852	      2.56340232	      7.55887453	     -5.02547891	      4.39322391	      1.07055775	      9.88057801	     37.57420450	     -5.66922111	    -17.26738089	    -25.60269016	     -9.14795572	     11.38983951	     17.05718587	     11.57927744	      0.62212649	      7.45416205
      4.70000000	    -13.29245816	      0.97054630	     -5.11061138	      0.22563828	     -0.01801070	      0.02191479	      0.39711289	      2.44132552	      7.49523714	     -5.09354799	      4.51418935	      1.19099213	      9.97492490	     37.72532760	     -5.39020201	    -17.25232916	    -24.13482891	     -9.73373904	     11.93062736	     17.12008847	     11.74355642	      0.52851044	      7.39910879
      4.70500000	    -13.35629649	      1.07483638	     -5.15383464	      0.23095280	     -0.01863063	      0.02146841	      0.23615754	      2.25557755	      7.28748211	     -5.24740996	      4.70564587	      1.70676621	     10.22561661	     37.69785848	     -5.11051625	    -17.33065328	    -22.54216898	    -10.51507074	     12.36148647	     17.72704819	     11.78568442	      0.41655286	      7.52800622
      4.71000000	    -13.48097913	      1.16014349	     -5.12902170	      0.23634450	     -0.01932514	      0.02095719	      0.11221973	      2.09581155	      7.11399441	     -5.36271605	      4.83472259	      2.04415232	     10.45575175	     37.73930030	     -4.80240787	    -17.29490564	    -20.96984127	    -11.30904457	     12.73141234	     18.18042289	     11.90303055	      0.30388367	      7.53161309
      4.71500000	    -13.61008473	      1.25247257	     -5.12679640	      0.24175251	     -0.02000661	      0.02048623	      0.00469894	      1.93035033	      6.95795091	     -5.49777455	      4.95521990	      2.39322643	     10.67814147	     37.76294936	     -4.50135290	    -17.26214000	    -19.39783154	    -12.07713898	     13.09350950	     18.55216012	     12.02403789	      0.18696699	      7.56346191
      4.72000000	    -13.73884455	      1.34774529	     -5.11578213	      0.24720475	     -0.02067202	      0.01999990	     -0.10232591	      1.75895488	      6.78501375	     -5.63711201	      5.05733726	      2.76135489	     10.90904048	     37.76431859	     -4.18468984	    -17.17629414	    -17.81282846	    -12.85131701	     13.35816554	     18.92138478	     12.14703340	      0.06238307	      7.57947531
      4.72500000	    -13.87104721	      1.44899459	     -5.11321966	      0.25267760	     -0.02133212	      0.01954626	     -0.19759646	      1.58382543	      6.61928676	     -5.79151935	      5.14932047	      3.11966609	     11.14091382	     37.74915224	     -3.86788379	    -17.05705883	    -16.22903848	    -13.59376225	     13.54849565	     19.22494382	     12.27367827	     -0.06901156	      7.60404413
      4.73000000	    -14.05066386	      1.54350190	     -5.09020352	      0.25820362	     -0.02203398	      0.01912081	     -0.25692853	      1.42716099	      6.53829427	     -5.92886772	      5.19653535	      3.31414137	     11.26796407	     37.78585747	     -3.56220731	    -16.93881864	    -14.70555423	    -14.20711379	     13.78899929	     19.23355057	     12.45738152	     -0.20435721	      7.56772828
